<?xml version="1.0" standalone="no"?>
<!DOCTYPE svg PUBLIC "-//W3C//DTD SVG 20010904//EN"
 "http://www.w3.org/TR/2001/REC-SVG-20010904/DTD/svg10.dtd">
<svg version="1.0" xmlns="http://www.w3.org/2000/svg"
 width="700.000000pt" height="700.000000pt" viewBox="0 0 700.000000 700.000000"
 preserveAspectRatio="xMidYMid meet">
<metadata>
Created by potrace 1.14, written by Peter Selinger 2001-2017
</metadata>
<g transform="translate(0.000000,700.000000) scale(0.100000,-0.100000)"
fill="#000000" stroke="none">
<path d="M3280 6994 c-19 -2 -84 -9 -145 -14 -578 -56 -1180 -283 -1660 -625
-237 -169 -531 -446 -709 -670 -416 -521 -673 -1147 -748 -1820 -17 -154 -17
-585 0 -730 69 -588 254 -1099 567 -1570 126 -189 242 -332 410 -504 580 -595
1295 -943 2140 -1043 145 -17 576 -17 730 0 822 91 1556 447 2131 1034 203
206 348 390 487 618 274 449 432 915 499 1465 16 135 16 591 0 730 -100 846
-447 1557 -1043 2141 -555 542 -1249 874 -2029 970 -117 15 -553 27 -630 18z
m149 -1730 c35 -29 49 -81 30 -115 -6 -13 -42 -56 -79 -94 -310 -329 -428
-794 -316 -1239 61 -239 179 -441 365 -627 168 -167 348 -279 561 -348 175
-56 245 -66 470 -66 187 0 215 3 318 27 62 15 163 48 225 73 169 70 180 74
209 68 15 -3 39 -17 53 -30 47 -48 30 -120 -73 -294 -266 -451 -704 -760
-1240 -875 -160 -35 -470 -44 -645 -20 -777 109 -1408 680 -1562 1416 -40 189
-48 442 -20 625 113 742 693 1343 1450 1501 153 32 215 31 254 -2z"/>
</g>
</svg>
